<?xml version="1.0" encoding="UTF-8"?>
<svg xmlns="http://www.w3.org/2000/svg" xmlns:xlink="http://www.w3.org/1999/xlink" width="30pt" height="30.000001pt" viewBox="0 0 30 30.000001" version="1.2">
<defs>
<clipPath id="clip1">
  <path d="M 0.484375 0.671875 L 29.515625 0.671875 L 29.515625 28.148438 L 0.484375 28.148438 Z M 0.484375 0.671875 "/>
</clipPath>
</defs>
<g id="surface1">
<g clip-path="url(#clip1)" clip-rule="nonzero">
<path style=" stroke:none;fill-rule:nonzero;fill:rgb(0%,0%,0%);fill-opacity:1;" d="M 10.800781 20.484375 L 23.851562 20.484375 C 24.136719 20.484375 24.414062 20.4375 24.683594 20.34375 C 24.949219 20.25 25.199219 20.117188 25.421875 19.945312 C 25.648438 19.773438 25.839844 19.570312 25.996094 19.332031 C 26.152344 19.097656 26.269531 18.84375 26.34375 18.570312 L 29.371094 7.511719 C 29.417969 7.320312 29.378906 7.144531 29.253906 6.992188 C 29.128906 6.851562 28.972656 6.777344 28.785156 6.757812 L 6.363281 6.757812 L 4.828125 1.15625 C 4.792969 1.023438 4.722656 0.917969 4.613281 0.835938 C 4.503906 0.753906 4.378906 0.71875 4.242188 0.722656 L 0.527344 0.722656 L 0.527344 1.9375 L 3.789062 1.9375 L 5.28125 7.472656 L 5.28125 7.511719 L 8.3125 18.570312 C 8.335938 18.628906 8.367188 18.703125 8.398438 18.78125 L 9.429688 22.605469 C 8.949219 22.859375 8.570312 23.214844 8.289062 23.679688 C 8.003906 24.140625 7.863281 24.640625 7.859375 25.183594 L 7.859375 25.804688 L 7.933594 25.804688 C 8 26.132812 8.121094 26.441406 8.292969 26.726562 C 8.46875 27.015625 8.683594 27.265625 8.945312 27.476562 C 9.207031 27.6875 9.496094 27.851562 9.816406 27.964844 C 10.132812 28.078125 10.460938 28.132812 10.800781 28.132812 C 11.195312 28.132812 11.574219 28.058594 11.941406 27.910156 C 12.308594 27.761719 12.632812 27.546875 12.914062 27.269531 C 13.195312 26.996094 13.410156 26.675781 13.566406 26.3125 C 13.71875 25.953125 13.800781 25.574219 13.800781 25.183594 C 13.785156 24.542969 13.585938 23.964844 13.203125 23.449219 L 21.445312 23.449219 C 21.0625 23.964844 20.863281 24.542969 20.84375 25.183594 C 20.847656 25.574219 20.929688 25.953125 21.082031 26.316406 C 21.238281 26.675781 21.453125 26.996094 21.734375 27.273438 C 22.015625 27.546875 22.339844 27.761719 22.707031 27.910156 C 23.074219 28.058594 23.453125 28.132812 23.851562 28.132812 C 24.1875 28.132812 24.515625 28.078125 24.835938 27.964844 C 25.152344 27.851562 25.441406 27.691406 25.703125 27.476562 C 25.964844 27.265625 26.183594 27.015625 26.359375 26.726562 C 26.53125 26.441406 26.652344 26.132812 26.71875 25.800781 L 26.792969 25.800781 L 26.792969 25.179688 C 26.796875 24.792969 26.722656 24.417969 26.574219 24.054688 C 26.425781 23.695312 26.214844 23.375 25.941406 23.097656 C 25.664062 22.824219 25.34375 22.609375 24.984375 22.457031 C 24.621094 22.308594 24.242188 22.234375 23.851562 22.230469 L 10.800781 22.230469 C 10.753906 22.230469 10.6875 22.25 10.601562 22.257812 L 10.085938 20.355469 C 10.316406 20.441406 10.554688 20.484375 10.800781 20.484375 Z M 10.800781 26.945312 C 10.566406 26.945312 10.34375 26.898438 10.128906 26.808594 C 9.914062 26.71875 9.726562 26.589844 9.5625 26.425781 C 9.398438 26.261719 9.273438 26.074219 9.183594 25.859375 C 9.09375 25.644531 9.050781 25.421875 9.050781 25.191406 C 9.054688 24.957031 9.097656 24.734375 9.1875 24.523438 C 9.277344 24.308594 9.40625 24.121094 9.570312 23.957031 C 9.734375 23.792969 9.925781 23.667969 10.140625 23.578125 C 10.355469 23.488281 10.578125 23.445312 10.8125 23.445312 C 11.046875 23.445312 11.269531 23.488281 11.484375 23.574219 C 11.699219 23.664062 11.890625 23.789062 12.058594 23.949219 C 12.222656 24.113281 12.351562 24.300781 12.441406 24.515625 C 12.53125 24.726562 12.578125 24.949219 12.582031 25.179688 C 12.585938 25.417969 12.546875 25.644531 12.457031 25.863281 C 12.371094 26.085938 12.242188 26.277344 12.074219 26.445312 C 11.90625 26.613281 11.710938 26.738281 11.488281 26.828125 C 11.269531 26.914062 11.039062 26.957031 10.800781 26.949219 Z M 23.851562 26.945312 C 23.617188 26.953125 23.390625 26.914062 23.167969 26.832031 C 22.949219 26.746094 22.753906 26.625 22.585938 26.464844 C 22.414062 26.300781 22.28125 26.113281 22.1875 25.902344 C 22.09375 25.6875 22.042969 25.464844 22.039062 25.230469 C 22.035156 24.996094 22.074219 24.773438 22.160156 24.554688 C 22.246094 24.335938 22.371094 24.144531 22.535156 23.976562 C 22.699219 23.808594 22.890625 23.679688 23.105469 23.585938 C 23.320312 23.496094 23.546875 23.449219 23.78125 23.445312 C 24.015625 23.441406 24.242188 23.484375 24.460938 23.570312 C 24.679688 23.660156 24.875 23.785156 25.039062 23.949219 C 25.207031 24.113281 25.339844 24.300781 25.429688 24.515625 C 25.519531 24.730469 25.566406 24.957031 25.566406 25.1875 C 25.574219 25.417969 25.535156 25.640625 25.449219 25.855469 C 25.363281 26.070312 25.242188 26.261719 25.082031 26.425781 C 24.917969 26.589844 24.730469 26.71875 24.519531 26.808594 C 24.304688 26.902344 24.082031 26.949219 23.851562 26.949219 Z M 23.851562 26.945312 "/>
</g>
</g>
</svg>
