<?xml version="1.0" encoding="UTF-8"?>
<svg xmlns="http://www.w3.org/2000/svg" xmlns:xlink="http://www.w3.org/1999/xlink" width="30pt" height="30.000001pt" viewBox="0 0 30 30.000001" version="1.2">
<defs>
<clipPath id="clip1">
  <path d="M 0.484375 0 L 29.515625 0 L 29.515625 29.03125 L 0.484375 29.03125 Z M 0.484375 0 "/>
</clipPath>
</defs>
<g id="surface1">
<g clip-path="url(#clip1)" clip-rule="nonzero">
<path style=" stroke:none;fill-rule:nonzero;fill:rgb(232, 107, 107);
;fill-opacity:1;" d="M 0.484375 14.515625 C 0.484375 6.5 6.984375 0 15 0 C 23.015625 0 29.515625 6.5 29.515625 14.515625 C 29.515625 22.53125 23.015625 29.03125 15 29.03125 C 6.984375 29.03125 0.484375 22.53125 0.484375 14.515625 Z M 0.484375 14.515625 "/>
</g>
<path style=" stroke:none;fill-rule:nonzero;fill:rgb(255, 255, 255);fill-opacity:1;" d="M 22.371094 9.082031 C 20.335938 7.042969 17.035156 7.042969 15 9.082031 C 12.964844 7.042969 9.664062 7.042969 7.628906 9.082031 C 5.589844 11.117188 5.882812 14.160156 7.628906 16.453125 C 9.472656 18.882812 12.839844 22.882812 15 22.882812 C 17.160156 22.882812 20.527344 18.875 22.371094 16.453125 C 24.117188 14.160156 24.410156 11.117188 22.371094 9.082031 "/>
</g>
</svg>
