<?xml version="1.0" encoding="UTF-8"?>
<svg xmlns="http://www.w3.org/2000/svg" xmlns:xlink="http://www.w3.org/1999/xlink" width="30pt" height="30.000001pt" viewBox="0 0 30 30.000001" version="1.2">
<defs>
<clipPath id="clip1">
  <path d="M 0.484375 0 L 29.515625 0 L 29.515625 29.03125 L 0.484375 29.03125 Z M 0.484375 0 "/>
</clipPath>
<clipPath id="clip2">
  <path d="M 3 1 L 28.226562 1 L 28.226562 29.03125 L 3 29.03125 Z M 3 1 "/>
</clipPath>
</defs>
<g id="surface1">
<g clip-path="url(#clip1)" clip-rule="nonzero">
<path style=" stroke:none;fill-rule:nonzero;fill:rgb(100%,100%,100%);fill-opacity:1;" d="M 0.484375 0 L 29.515625 0 L 29.515625 36.289062 L 0.484375 36.289062 Z M 0.484375 0 "/>
<path style=" stroke:none;fill-rule:nonzero;fill:rgb(100%,100%,100%);fill-opacity:1;" d="M 0.484375 0 L 29.515625 0 L 29.515625 29.03125 L 0.484375 29.03125 Z M 0.484375 0 "/>
<path style=" stroke:none;fill-rule:nonzero;fill:rgb(100%,100%,100%);fill-opacity:1;" d="M 0.484375 0 L 29.515625 0 L 29.515625 29.03125 L 0.484375 29.03125 Z M 0.484375 0 "/>
</g>
<g clip-path="url(#clip2)" clip-rule="nonzero">
<path style=" stroke:none;fill-rule:nonzero;fill:rgb(0%,0%,0%);fill-opacity:1;" d="M 27.914062 26.261719 L 22.867188 21.0625 C 23.199219 20.761719 23.515625 20.441406 23.808594 20.105469 C 24.105469 19.769531 24.378906 19.421875 24.632812 19.054688 C 24.886719 18.6875 25.117188 18.308594 25.328125 17.914062 C 25.535156 17.523438 25.71875 17.121094 25.882812 16.707031 C 26.042969 16.292969 26.179688 15.871094 26.289062 15.441406 C 26.402344 15.015625 26.488281 14.582031 26.546875 14.140625 C 26.605469 13.703125 26.640625 13.261719 26.648438 12.820312 C 26.65625 12.378906 26.636719 11.9375 26.589844 11.496094 C 26.546875 11.058594 26.476562 10.621094 26.378906 10.191406 C 26.285156 9.757812 26.160156 9.332031 26.015625 8.914062 C 25.867188 8.496094 25.695312 8.085938 25.5 7.6875 C 25.304688 7.289062 25.089844 6.902344 24.847656 6.527344 C 24.605469 6.152344 24.34375 5.792969 24.058594 5.449219 C 23.777344 5.101562 23.472656 4.773438 23.152344 4.464844 C 22.828125 4.152344 22.488281 3.859375 22.128906 3.589844 C 21.773438 3.316406 21.402344 3.0625 21.015625 2.832031 C 20.628906 2.601562 20.226562 2.394531 19.816406 2.210938 C 19.40625 2.023438 18.984375 1.863281 18.554688 1.722656 C 18.121094 1.585938 17.683594 1.472656 17.238281 1.382812 C 16.796875 1.292969 16.347656 1.230469 15.894531 1.191406 C 15.445312 1.152344 14.992188 1.140625 14.539062 1.152344 C 14.085938 1.164062 13.632812 1.203125 13.183594 1.265625 C 12.734375 1.332031 12.292969 1.417969 11.855469 1.53125 C 11.414062 1.644531 10.984375 1.78125 10.5625 1.945312 C 10.140625 2.105469 9.730469 2.292969 9.328125 2.5 C 8.929688 2.707031 8.542969 2.9375 8.167969 3.191406 C 7.796875 3.441406 7.441406 3.714844 7.097656 4.003906 C 6.757812 4.296875 6.4375 4.605469 6.132812 4.933594 C 5.828125 5.261719 5.542969 5.609375 5.28125 5.96875 C 5.019531 6.328125 4.777344 6.703125 4.558594 7.089844 C 4.339844 7.476562 4.144531 7.875 3.972656 8.285156 C 3.800781 8.691406 3.652344 9.109375 3.53125 9.535156 C 3.410156 9.960938 3.3125 10.394531 3.242188 10.832031 C 3.171875 11.265625 3.125 11.707031 3.105469 12.148438 C 3.085938 12.589844 3.09375 13.03125 3.128906 13.472656 C 3.160156 13.914062 3.21875 14.351562 3.304688 14.785156 C 3.390625 15.21875 3.5 15.648438 3.636719 16.070312 C 3.773438 16.492188 3.933594 16.90625 4.117188 17.308594 C 4.304688 17.710938 4.511719 18.105469 4.742188 18.484375 C 4.972656 18.867188 5.226562 19.230469 5.5 19.582031 C 5.777344 19.9375 6.070312 20.269531 6.386719 20.589844 C 6.699219 20.910156 7.03125 21.207031 7.382812 21.488281 C 7.730469 21.769531 8.097656 22.03125 8.476562 22.273438 C 8.859375 22.511719 9.253906 22.730469 9.660156 22.925781 C 10.066406 23.121094 10.484375 23.292969 10.910156 23.441406 C 11.335938 23.589844 11.773438 23.714844 12.214844 23.816406 C 12.65625 23.914062 13.101562 23.988281 13.554688 24.039062 C 14.003906 24.089844 14.457031 24.113281 14.910156 24.113281 C 16.726562 24.113281 18.445312 23.71875 20.074219 22.929688 L 25.457031 28.523438 C 25.792969 28.867188 26.199219 29.035156 26.683594 29.03125 C 27.132812 29.035156 27.519531 28.886719 27.847656 28.589844 C 28.011719 28.441406 28.136719 28.265625 28.230469 28.066406 C 28.324219 27.867188 28.371094 27.65625 28.378906 27.4375 C 28.382812 27.21875 28.347656 27.007812 28.265625 26.804688 C 28.1875 26.601562 28.070312 26.417969 27.914062 26.261719 Z M 6.496094 12.628906 C 6.496094 12.089844 6.550781 11.558594 6.660156 11.03125 C 6.765625 10.5 6.925781 9.988281 7.136719 9.492188 C 7.347656 8.992188 7.609375 8.519531 7.914062 8.074219 C 8.222656 7.625 8.570312 7.210938 8.960938 6.832031 C 9.351562 6.449219 9.777344 6.109375 10.234375 5.8125 C 10.695312 5.511719 11.179688 5.257812 11.691406 5.054688 C 12.199219 4.847656 12.726562 4.691406 13.269531 4.585938 C 13.808594 4.480469 14.355469 4.429688 14.910156 4.429688 C 15.460938 4.429688 16.007812 4.480469 16.550781 4.585938 C 17.09375 4.691406 17.617188 4.847656 18.128906 5.054688 C 18.636719 5.257812 19.125 5.511719 19.582031 5.8125 C 20.042969 6.109375 20.464844 6.449219 20.855469 6.832031 C 21.246094 7.210938 21.597656 7.625 21.902344 8.074219 C 22.210938 8.519531 22.46875 8.992188 22.679688 9.492188 C 22.890625 9.988281 23.050781 10.5 23.160156 11.03125 C 23.265625 11.558594 23.320312 12.089844 23.320312 12.628906 C 23.320312 13.167969 23.265625 13.703125 23.160156 14.230469 C 23.050781 14.757812 22.890625 15.269531 22.679688 15.769531 C 22.46875 16.265625 22.210938 16.738281 21.902344 17.1875 C 21.597656 17.632812 21.246094 18.046875 20.855469 18.429688 C 20.464844 18.808594 20.042969 19.148438 19.582031 19.449219 C 19.125 19.75 18.636719 20 18.128906 20.207031 C 17.617188 20.414062 17.09375 20.570312 16.550781 20.671875 C 16.007812 20.777344 15.460938 20.832031 14.910156 20.832031 C 14.355469 20.832031 13.808594 20.777344 13.269531 20.671875 C 12.726562 20.570312 12.199219 20.414062 11.691406 20.207031 C 11.179688 20 10.695312 19.75 10.234375 19.449219 C 9.777344 19.148438 9.351562 18.808594 8.960938 18.429688 C 8.570312 18.046875 8.222656 17.632812 7.914062 17.1875 C 7.609375 16.738281 7.347656 16.265625 7.136719 15.769531 C 6.925781 15.269531 6.765625 14.757812 6.660156 14.230469 C 6.550781 13.703125 6.496094 13.167969 6.496094 12.628906 Z M 6.496094 12.628906 "/>
</g>
</g>
</svg>
